<svg width="20" height="20" viewBox="0 0 23 22" fill="none" xmlns="http://www.w3.org/2000/svg">
    <g clip-path="url(#clip0_36_3318)">
        <path
            d="M11.5 4.58333C12.9821 4.58333 14.3429 5.09074 15.4291 5.93455L18.7632 2.75375C16.8247 1.04495 14.2872 0 11.5 0C7.27637 0 3.61362 2.38325 1.77032 5.8757L5.47773 8.80255C6.37581 6.34276 8.72936 4.58333 11.5 4.58333Z"
            fill="white" />
        <path
            d="M22.4048 12.3766C22.462 11.926 22.5 11.4663 22.5 11C22.5 10.2137 22.4141 9.44788 22.2573 8.70831H11.5V13.2916H17.4457C16.9647 14.5418 16.1083 15.5996 15.0182 16.3345L18.7394 19.2723C20.7119 17.5408 22.0618 15.1162 22.4048 12.3766Z"
            fill="white" />
        <path
            d="M5.08333 11C5.08333 10.2269 5.22712 9.48894 5.47772 8.80252L1.77032 5.87567C0.962305 7.40666 0.5 9.14846 0.5 11C0.5 12.8308 0.953801 14.5533 1.74504 16.0719L5.45713 13.1412C5.2194 12.4707 5.08333 11.752 5.08333 11Z"
            fill="white" />
        <path
            d="M11.5 17.4167C8.70828 17.4167 6.33957 15.6305 5.45715 13.1412L1.74506 16.0719C3.57933 19.5924 7.25568 22 11.5 22C14.2755 22 16.8064 20.9689 18.7394 19.2723L15.0182 16.3345C14.0128 17.0123 12.8094 17.4167 11.5 17.4167Z"
            fill="white" />
        <path opacity="0.1"
            d="M11.5 21.7708C8.26262 21.7708 5.35165 20.435 3.29358 18.307C5.30824 20.568 8.23341 22 11.5 22C14.7364 22 17.6373 20.5962 19.6474 18.3707C17.5955 20.4642 14.7066 21.7708 11.5 21.7708Z"
            fill="white" />
        <path opacity="0.1" d="M11.5 13.0625V13.2917H17.4457L17.5385 13.0625H11.5Z" fill="white" />
        <path
            d="M22.4949 11.1347C22.4956 11.0896 22.5 11.0453 22.5 11C22.5 10.9872 22.498 10.9748 22.4979 10.962C22.4973 11.0197 22.4944 11.0768 22.4949 11.1347Z"
            fill="#E6E6E6" />
        <path opacity="0.2" d="M11.5 8.70831V8.93748H22.3035C22.289 8.86184 22.2732 8.7834 22.2573 8.70831H11.5Z"
            fill="white" />
        <path
            d="M22.2573 8.70833H11.5V13.2917H17.4457C16.521 15.6948 14.2291 17.4167 11.5 17.4167C7.95619 17.4167 5.08333 14.5438 5.08333 11C5.08333 7.45614 7.95619 4.58333 11.5 4.58333C12.7851 4.58333 13.9694 4.97811 14.9728 5.62897C15.1264 5.72877 15.2848 5.82249 15.4291 5.93456L18.7632 2.75375L18.688 2.6959C16.7588 1.02398 14.2532 0 11.5 0C5.42485 0 0.5 4.92485 0.5 11C0.5 17.0751 5.42485 22 11.5 22C17.1079 22 21.7259 17.8006 22.4048 12.3766C22.462 11.926 22.5 11.4663 22.5 11C22.5 10.2137 22.4141 9.4479 22.2573 8.70833Z"
            fill="white" />
        <path opacity="0.1"
            d="M14.9728 5.39977C13.9694 4.74891 12.7851 4.35414 11.5 4.35414C7.95617 4.35414 5.08331 7.22695 5.08331 10.7708C5.08331 10.8095 5.08384 10.8396 5.0845 10.8782C5.14632 7.38786 7.99484 4.58331 11.5 4.58331C12.7851 4.58331 13.9694 4.97808 14.9728 5.62894C15.1264 5.72875 15.2848 5.82247 15.4291 5.93453L18.7632 2.75372L15.4291 5.70536C15.2848 5.5933 15.1264 5.49958 14.9728 5.39977Z"
            fill="white" />
        <path opacity="0.2"
            d="M11.5 0.229167C14.2271 0.229167 16.7093 1.23602 18.631 2.8798L18.7632 2.75375L18.6623 2.66591C16.7333 0.993997 14.2532 0 11.5 0C5.42485 0 0.5 4.92485 0.5 11C0.5 11.0387 0.505371 11.076 0.505763 11.1146C0.567866 5.09286 5.4635 0.229167 11.5 0.229167Z"
            fill="white" />
    </g>
    <defs>
        <clipPath id="clip0_36_3318">
            <rect width="22" height="22" fill="white" transform="translate(0.5)" />
        </clipPath>
    </defs>
</svg>