<svg width="28" height="28" viewBox="0 0 28 28" fill="none" xmlns="http://www.w3.org/2000/svg">
<g clip-path="url(#clip0_8_56)">
<path d="M22.33 15.0967C22.3767 14.7467 22.4 14.385 22.4 14C22.4 13.6267 22.3767 13.2533 22.3184 12.9033L24.6867 11.06C24.8967 10.8967 24.955 10.5817 24.8267 10.3483L22.5867 6.475C22.4467 6.21834 22.1551 6.13667 21.8984 6.21834L19.11 7.33834C18.5267 6.895 17.9084 6.52167 17.22 6.24167L16.8 3.27834C16.7534 2.99834 16.52 2.8 16.24 2.8H11.76C11.48 2.8 11.2584 2.99834 11.2117 3.27834L10.7917 6.24167C10.1034 6.52167 9.47338 6.90667 8.90171 7.33834L6.11338 6.21834C5.85671 6.125 5.56505 6.21834 5.42505 6.475L3.19671 10.3483C3.05671 10.5933 3.10338 10.8967 3.33671 11.06L5.70505 12.9033C5.64671 13.2533 5.60005 13.6383 5.60005 14C5.60005 14.3617 5.62338 14.7467 5.68171 15.0967L3.31338 16.94C3.10338 17.1033 3.04505 17.4183 3.17338 17.6517L5.41338 21.525C5.55338 21.7817 5.84505 21.8633 6.10171 21.7817L8.89005 20.6617C9.47338 21.105 10.0917 21.4783 10.78 21.7583L11.2 24.7217C11.2584 25.0017 11.48 25.2 11.76 25.2H16.24C16.52 25.2 16.7534 25.0017 16.7884 24.7217L17.2084 21.7583C17.8967 21.4783 18.5267 21.105 19.0984 20.6617L21.8867 21.7817C22.1434 21.875 22.435 21.7817 22.5751 21.525L24.8151 17.6517C24.955 17.395 24.8967 17.1033 24.675 16.94L22.33 15.0967ZM14 18.2C11.69 18.2 9.80005 16.31 9.80005 14C9.80005 11.69 11.69 9.8 14 9.8C16.31 9.8 18.2 11.69 18.2 14C18.2 16.31 16.31 18.2 14 18.2Z" fill="white"/>
</g>
<defs>
<clipPath id="clip0_8_56">
<rect width="28" height="28" fill="white"/>
</clipPath>
</defs>
</svg>
